<svg width="651" height="175" viewBox="0 0 651 175" fill="none" xmlns="http://www.w3.org/2000/svg">
<rect width="651" height="175" fill="white"/>
<g clip-path="url(#clip0_1_17)">
<g clip-path="url(#clip1_1_17)">
<path d="M169.294 59.2605C159.807 41.5347 134.88 33 117.608 33C100.336 33 85.0923 43.2416 79.4658 51.0541C73.8393 58.8666 70.7643 68.1891 68.867 77.6429C66.7734 88.7379 67.4277 115.195 82.8679 128.72C99.4203 143.294 117.412 143.294 132.067 140.668C153.461 136.86 167.723 115.524 172.369 94.3183C174.855 82.5667 174.986 69.7647 169.294 59.2605ZM150.386 82.7637L129.516 90.3792C129.254 91.2983 128.861 92.1518 128.272 93.0053C126.768 95.0405 124.282 96.3535 121.665 96.3535C120.749 96.3535 119.767 96.1565 118.851 95.8283C115.907 94.7779 113.617 92.1518 113.029 89.1975C112.44 86.6371 113.29 84.0111 115.253 82.1072C116.431 80.9254 118.066 80.1376 119.636 79.8094L133.834 47.2463C134.488 45.7364 135.796 44.7516 137.367 44.7516C138.871 44.7516 140.441 45.605 141.292 46.9837C142.142 48.2311 142.339 49.8724 141.619 51.3167L128.142 82.2385C128.207 82.3041 128.403 82.3041 128.469 82.4354L147.376 75.542C147.769 75.3451 148.292 75.2794 148.75 75.2794C150.713 75.2794 152.414 76.7238 152.741 78.6933C152.938 80.5972 152.087 82.1072 150.386 82.7637Z" fill="#FF834F"/>
</g>
</g>
<path d="M228.881 61.228C228.724 63.3913 228.606 65.476 228.527 67.482C228.488 69.488 228.468 71.022 228.468 72.084C228.468 72.9493 228.488 73.7557 228.527 74.503C228.566 75.2503 228.606 75.8993 228.645 76.45H227.288C226.501 72.9493 225.557 70.196 224.456 68.19C223.355 66.1447 222.096 64.709 220.68 63.883C219.303 63.0177 217.809 62.585 216.196 62.585H215.488V96.274C215.488 97.8867 215.645 99.0863 215.96 99.873C216.314 100.66 216.943 101.191 217.848 101.466C218.792 101.702 220.149 101.82 221.919 101.82V103C220.621 102.961 218.871 102.921 216.668 102.882C214.505 102.843 212.243 102.823 209.883 102.823C207.562 102.823 205.379 102.843 203.334 102.882C201.289 102.921 199.637 102.961 198.378 103V101.82C200.148 101.82 201.505 101.702 202.449 101.466C203.393 101.191 204.022 100.66 204.337 99.873C204.652 99.0863 204.809 97.8867 204.809 96.274V62.585H204.16C202.508 62.585 200.994 63.0177 199.617 63.883C198.24 64.709 197.001 66.125 195.9 68.131C194.799 70.137 193.835 72.91 193.009 76.45H191.652C191.731 75.8993 191.77 75.2503 191.77 74.503C191.809 73.7557 191.829 72.9493 191.829 72.084C191.829 71.022 191.79 69.488 191.711 67.482C191.672 65.476 191.573 63.3913 191.416 61.228C193.265 61.2673 195.29 61.3067 197.493 61.346C199.735 61.3853 201.957 61.405 204.16 61.405C206.363 61.405 208.369 61.405 210.178 61.405C211.987 61.405 213.993 61.405 216.196 61.405C218.438 61.405 220.66 61.3853 222.863 61.346C225.066 61.3067 227.072 61.2673 228.881 61.228ZM251.396 61.228V62.408C250.177 62.4473 249.253 62.6047 248.623 62.88C247.994 63.116 247.581 63.588 247.384 64.296C247.188 64.9647 247.089 66.0267 247.089 67.482V96.746C247.089 98.162 247.188 99.224 247.384 99.932C247.62 100.64 248.033 101.112 248.623 101.348C249.253 101.584 250.177 101.741 251.396 101.82V103C250.295 102.921 248.879 102.882 247.148 102.882C245.457 102.843 243.746 102.823 242.015 102.823C240.009 102.823 238.121 102.843 236.351 102.882C234.581 102.882 233.165 102.921 232.103 103V101.82C233.323 101.741 234.227 101.584 234.817 101.348C235.447 101.112 235.86 100.64 236.056 99.932C236.292 99.224 236.41 98.162 236.41 96.746V67.482C236.41 66.0267 236.292 64.9647 236.056 64.296C235.86 63.588 235.447 63.116 234.817 62.88C234.227 62.6047 233.323 62.4473 232.103 62.408V61.228C233.165 61.2673 234.581 61.3067 236.351 61.346C238.121 61.3853 240.009 61.405 242.015 61.405C243.746 61.405 245.457 61.3853 247.148 61.346C248.879 61.3067 250.295 61.2673 251.396 61.228ZM307.191 61.228V62.408C306.011 62.4473 305.106 62.6047 304.477 62.88C303.848 63.116 303.415 63.588 303.179 64.296C302.982 64.9647 302.884 66.0267 302.884 67.482V96.746C302.884 98.162 303.002 99.224 303.238 99.932C303.474 100.64 303.887 101.112 304.477 101.348C305.106 101.584 306.011 101.741 307.191 101.82V103C306.05 102.921 304.575 102.882 302.766 102.882C300.996 102.843 299.187 102.823 297.338 102.823C295.332 102.823 293.444 102.843 291.674 102.882C289.943 102.882 288.527 102.921 287.426 103V101.82C288.763 101.741 289.766 101.584 290.435 101.348C291.143 101.112 291.615 100.64 291.851 99.932C292.087 99.224 292.205 98.162 292.205 96.746V65.004L292.736 64.945L277.986 103H277.042L260.758 65.063V92.38C260.758 94.7793 260.876 96.628 261.112 97.926C261.348 99.1847 261.879 100.089 262.705 100.64C263.531 101.191 264.829 101.584 266.599 101.82V103C265.852 102.921 264.849 102.882 263.59 102.882C262.371 102.843 261.21 102.823 260.109 102.823C259.244 102.823 258.339 102.843 257.395 102.882C256.49 102.882 255.723 102.921 255.094 103V101.82C256.353 101.584 257.277 101.21 257.867 100.699C258.496 100.148 258.909 99.3027 259.106 98.162C259.303 96.982 259.401 95.3693 259.401 93.324V67.482C259.401 66.0267 259.303 64.9647 259.106 64.296C258.909 63.588 258.496 63.116 257.867 62.88C257.238 62.6047 256.313 62.4473 255.094 62.408V61.228C255.723 61.2673 256.49 61.3067 257.395 61.346C258.339 61.3853 259.244 61.405 260.109 61.405C262.115 61.405 264.042 61.3853 265.891 61.346C267.74 61.3067 269.411 61.2673 270.906 61.228L282.942 89.312L281.29 90.964L292.677 61.405C293.424 61.405 294.191 61.405 294.978 61.405C295.804 61.405 296.591 61.405 297.338 61.405C299.187 61.405 300.996 61.3853 302.766 61.346C304.575 61.3067 306.05 61.2673 307.191 61.228ZM343.139 61.228C342.982 63.0767 342.864 64.8663 342.785 66.597C342.746 68.3277 342.726 69.6453 342.726 70.55C342.726 71.3367 342.746 72.1037 342.785 72.851C342.824 73.5983 342.864 74.208 342.903 74.68H341.546C341.113 71.612 340.405 69.193 339.422 67.423C338.478 65.653 337.298 64.414 335.882 63.706C334.505 62.9587 332.971 62.585 331.28 62.585H329.687C328.625 62.585 327.799 62.6833 327.209 62.88C326.658 63.0373 326.285 63.3913 326.088 63.942C325.931 64.4927 325.852 65.358 325.852 66.538V97.69C325.852 98.8307 325.931 99.696 326.088 100.286C326.285 100.837 326.658 101.21 327.209 101.407C327.799 101.564 328.625 101.643 329.687 101.643H332.106C333.64 101.643 335.095 101.25 336.472 100.463C337.888 99.637 339.147 98.2603 340.248 96.333C341.349 94.3663 342.175 91.7113 342.726 88.368H344.083C343.965 89.7053 343.906 91.436 343.906 93.56C343.906 94.504 343.926 95.8413 343.965 97.572C344.004 99.3027 344.122 101.112 344.319 103C342.313 102.921 340.051 102.882 337.534 102.882C335.017 102.843 332.775 102.823 330.808 102.823C329.785 102.823 328.487 102.823 326.914 102.823C325.341 102.823 323.63 102.843 321.781 102.882C319.932 102.882 318.064 102.902 316.176 102.941C314.288 102.941 312.518 102.961 310.866 103V101.82C312.085 101.741 312.99 101.584 313.58 101.348C314.209 101.112 314.622 100.64 314.819 99.932C315.055 99.224 315.173 98.162 315.173 96.746V67.482C315.173 66.0267 315.055 64.9647 314.819 64.296C314.622 63.588 314.209 63.116 313.58 62.88C312.99 62.6047 312.085 62.4473 310.866 62.408V61.228C312.557 61.2673 314.327 61.3067 316.176 61.346C318.064 61.346 319.913 61.3657 321.722 61.405C323.571 61.405 325.282 61.405 326.855 61.405C328.468 61.405 329.785 61.405 330.808 61.405C332.617 61.405 334.663 61.405 336.944 61.405C339.265 61.3657 341.33 61.3067 343.139 61.228ZM334.23 81.406C334.23 81.406 334.23 81.6027 334.23 81.996C334.23 82.3893 334.23 82.586 334.23 82.586H324.082C324.082 82.586 324.082 82.3893 324.082 81.996C324.082 81.6027 324.082 81.406 324.082 81.406H334.23ZM335.941 73.618C335.784 75.86 335.705 77.571 335.705 78.751C335.744 79.931 335.764 81.0127 335.764 81.996C335.764 82.9793 335.784 84.061 335.823 85.241C335.862 86.421 335.961 88.132 336.118 90.374H334.761C334.564 88.958 334.151 87.66 333.522 86.48C332.893 85.3 332.047 84.356 330.985 83.648C329.923 82.94 328.625 82.586 327.091 82.586V81.406C328.232 81.406 329.235 81.17 330.1 80.698C330.965 80.1867 331.693 79.5377 332.283 78.751C332.912 77.9643 333.424 77.1187 333.817 76.214C334.21 75.3093 334.466 74.444 334.584 73.618H335.941ZM380.994 61.228C380.836 63.116 380.718 64.9253 380.64 66.656C380.6 68.3867 380.581 69.724 380.581 70.668C380.581 71.5333 380.6 72.3397 380.64 73.087C380.679 73.8343 380.718 74.4833 380.758 75.034H379.401C378.811 71.8873 377.985 69.4093 376.923 67.6C375.9 65.7513 374.7 64.4533 373.324 63.706C371.986 62.9587 370.511 62.585 368.899 62.585H367.542C366.48 62.585 365.654 62.6833 365.064 62.88C364.513 63.0373 364.139 63.3913 363.943 63.942C363.785 64.4927 363.707 65.358 363.707 66.538V96.274C363.707 97.8473 363.864 99.0273 364.179 99.814C364.493 100.561 365.123 101.053 366.067 101.289C367.011 101.525 368.368 101.663 370.138 101.702V103C368.84 102.961 367.168 102.921 365.123 102.882C363.077 102.843 360.934 102.823 358.692 102.823C356.922 102.823 355.171 102.843 353.441 102.882C351.749 102.921 350.176 102.961 348.721 103V101.82C349.94 101.741 350.845 101.584 351.435 101.348C352.064 101.112 352.477 100.64 352.674 99.932C352.91 99.224 353.028 98.162 353.028 96.746V67.482C353.028 66.0267 352.91 64.9647 352.674 64.296C352.477 63.588 352.064 63.116 351.435 62.88C350.845 62.6047 349.94 62.4473 348.721 62.408V61.228C350.412 61.2673 352.182 61.3067 354.031 61.346C355.919 61.346 357.767 61.3657 359.577 61.405C361.425 61.405 363.136 61.405 364.71 61.405C366.322 61.405 367.64 61.405 368.663 61.405C370.472 61.405 372.517 61.405 374.799 61.405C377.119 61.3657 379.184 61.3067 380.994 61.228ZM372.321 81.524C372.321 81.524 372.321 81.7207 372.321 82.114C372.321 82.5073 372.321 82.704 372.321 82.704H361.937C361.937 82.704 361.937 82.5073 361.937 82.114C361.937 81.7207 361.937 81.524 361.937 81.524H372.321ZM373.914 73.736C373.756 75.978 373.678 77.689 373.678 78.869C373.717 80.049 373.737 81.1307 373.737 82.114C373.737 83.0973 373.756 84.179 373.796 85.359C373.835 86.539 373.933 88.25 374.091 90.492H372.734C372.498 89.076 372.065 87.778 371.436 86.598C370.806 85.418 369.961 84.474 368.899 83.766C367.876 83.058 366.578 82.704 365.005 82.704V81.524C366.145 81.524 367.148 81.288 368.014 80.816C368.879 80.3047 369.607 79.6557 370.197 78.869C370.826 78.0823 371.337 77.2367 371.731 76.332C372.124 75.4273 372.399 74.562 372.557 73.736H373.914ZM403.863 61.228V62.408C402.525 62.4473 401.503 62.6047 400.795 62.88C400.126 63.116 399.674 63.588 399.438 64.296C399.202 64.9647 399.084 66.0267 399.084 67.482V97.69C399.084 98.8307 399.162 99.696 399.32 100.286C399.516 100.837 399.851 101.21 400.323 101.407C400.795 101.564 401.503 101.643 402.447 101.643H404.866C406.046 101.643 407.226 101.289 408.406 100.581C409.586 99.873 410.687 98.8897 411.71 97.631C412.732 96.333 413.617 94.858 414.365 93.206C415.112 91.5147 415.643 89.7053 415.958 87.778H417.315C417.197 89.1547 417.138 90.9247 417.138 93.088C417.138 94.0713 417.157 95.4873 417.197 97.336C417.236 99.1453 417.354 101.033 417.551 103C415.545 102.921 413.283 102.882 410.766 102.882C408.248 102.843 406.006 102.823 404.04 102.823C403.017 102.823 401.719 102.823 400.146 102.823C398.572 102.823 396.861 102.843 395.013 102.882C393.164 102.882 391.296 102.902 389.408 102.941C387.52 102.941 385.75 102.961 384.098 103V101.82C385.317 101.741 386.222 101.584 386.812 101.348C387.441 101.112 387.854 100.64 388.051 99.932C388.287 99.224 388.405 98.162 388.405 96.746V67.482C388.405 66.0267 388.287 64.9647 388.051 64.296C387.854 63.588 387.441 63.116 386.812 62.88C386.222 62.6047 385.317 62.4473 384.098 62.408V61.228C385.16 61.2673 386.576 61.3067 388.346 61.346C390.116 61.3853 392.004 61.405 394.01 61.405C395.858 61.405 397.668 61.3853 399.438 61.346C401.208 61.3067 402.683 61.2673 403.863 61.228ZM442.635 60.402C446.962 60.402 450.738 61.2477 453.963 62.939C457.189 64.6303 459.686 67.069 461.456 70.255C463.266 73.4017 464.17 77.2367 464.17 81.76C464.17 86.1653 463.246 90.02 461.397 93.324C459.588 96.628 457.051 99.2043 453.786 101.053C450.522 102.902 446.785 103.826 442.576 103.826C438.289 103.826 434.513 102.98 431.248 101.289C428.023 99.5977 425.506 97.159 423.696 93.973C421.926 90.787 421.041 86.952 421.041 82.468C421.041 78.0627 421.966 74.208 423.814 70.904C425.702 67.6 428.259 65.0237 431.484 63.175C434.71 61.3263 438.427 60.402 442.635 60.402ZM442.399 61.464C440.315 61.464 438.505 62.349 436.971 64.119C435.437 65.889 434.238 68.3277 433.372 71.435C432.546 74.5423 432.133 78.1413 432.133 82.232C432.133 86.4013 432.605 90.0397 433.549 93.147C434.533 96.215 435.831 98.5947 437.443 100.286C439.056 101.938 440.846 102.764 442.812 102.764C444.897 102.764 446.706 101.879 448.24 100.109C449.814 98.339 451.013 95.9003 451.839 92.793C452.665 89.6463 453.078 86.0473 453.078 81.996C453.078 77.7873 452.606 74.149 451.662 71.081C450.718 68.013 449.42 65.653 447.768 64.001C446.156 62.3097 444.366 61.464 442.399 61.464ZM524.001 61.228V62.408C523.136 62.8013 522.212 63.5683 521.228 64.709C520.245 65.8497 519.399 67.6197 518.691 70.019L508.484 103.059C508.091 103.02 507.678 103 507.245 103C506.813 102.961 506.36 102.941 505.888 102.941C505.495 102.941 505.062 102.961 504.59 103C504.158 103 503.745 103.02 503.351 103.059L490.961 65.358C490.607 64.2567 490.155 63.5093 489.604 63.116C489.093 62.6833 488.503 62.4473 487.834 62.408V61.228C489.054 61.2673 490.489 61.3067 492.141 61.346C493.793 61.3853 495.465 61.405 497.156 61.405C498.926 61.405 500.598 61.3853 502.171 61.346C503.745 61.3067 505.023 61.2673 506.006 61.228V62.408C504.787 62.4473 503.843 62.585 503.174 62.821C502.506 63.057 502.112 63.529 501.994 64.237C501.916 64.9057 502.112 65.948 502.584 67.364L510.785 92.439L509.251 95.448L515.564 75.329C516.587 72.1037 517.079 69.5667 517.039 67.718C517 65.83 516.528 64.4927 515.623 63.706C514.758 62.88 513.519 62.4473 511.906 62.408V61.228C513.362 61.2673 514.66 61.3067 515.8 61.346C516.98 61.3853 518.2 61.405 519.458 61.405C520.284 61.405 521.091 61.3853 521.877 61.346C522.703 61.3067 523.411 61.2673 524.001 61.228ZM481.639 61.228V62.408C480.892 62.526 480.381 62.8407 480.105 63.352C479.83 63.8633 479.732 64.4927 479.81 65.24C479.928 65.948 480.105 66.656 480.341 67.364L489.25 93.029L487.657 95.33L494.973 74.739L495.799 76.391L486.654 103.059C486.261 103.02 485.828 103 485.356 103C484.924 102.961 484.491 102.941 484.058 102.941C483.626 102.941 483.193 102.961 482.76 103C482.328 103 481.915 103.02 481.521 103.059L468.069 66.184C467.558 64.768 466.968 63.8043 466.299 63.293C465.631 62.7423 465.021 62.4473 464.47 62.408V61.228C465.729 61.2673 467.243 61.3067 469.013 61.346C470.783 61.3853 472.475 61.405 474.087 61.405C475.7 61.405 477.155 61.3853 478.453 61.346C479.751 61.3067 480.813 61.2673 481.639 61.228Z" fill="black"/>
<path d="M199.155 126.638C199.098 126.065 198.854 125.62 198.423 125.303C197.992 124.985 197.408 124.827 196.669 124.827C196.167 124.827 195.743 124.898 195.398 125.04C195.052 125.177 194.787 125.369 194.602 125.615C194.422 125.861 194.332 126.141 194.332 126.453C194.323 126.714 194.377 126.941 194.496 127.135C194.619 127.329 194.787 127.497 195 127.639C195.213 127.777 195.459 127.897 195.739 128.001C196.018 128.101 196.316 128.186 196.634 128.257L197.94 128.57C198.575 128.712 199.157 128.901 199.688 129.138C200.218 129.375 200.677 129.666 201.065 130.011C201.454 130.357 201.754 130.764 201.967 131.233C202.185 131.702 202.296 132.239 202.301 132.845C202.296 133.735 202.069 134.507 201.619 135.161C201.174 135.809 200.53 136.313 199.688 136.673C198.849 137.028 197.839 137.206 196.655 137.206C195.481 137.206 194.458 137.026 193.587 136.666C192.72 136.306 192.043 135.774 191.555 135.068C191.072 134.358 190.819 133.48 190.795 132.433H193.771C193.804 132.921 193.944 133.328 194.19 133.655C194.441 133.977 194.775 134.221 195.192 134.386C195.613 134.547 196.089 134.628 196.619 134.628C197.14 134.628 197.592 134.552 197.976 134.401C198.364 134.249 198.665 134.038 198.878 133.768C199.091 133.499 199.197 133.188 199.197 132.838C199.197 132.511 199.1 132.237 198.906 132.014C198.717 131.792 198.438 131.602 198.068 131.446C197.704 131.29 197.256 131.148 196.726 131.02L195.142 130.622C193.916 130.324 192.947 129.857 192.237 129.223C191.527 128.589 191.174 127.734 191.179 126.659C191.174 125.778 191.409 125.009 191.882 124.351C192.36 123.693 193.016 123.179 193.849 122.81C194.683 122.44 195.63 122.256 196.69 122.256C197.77 122.256 198.712 122.44 199.517 122.81C200.327 123.179 200.956 123.693 201.406 124.351C201.856 125.009 202.088 125.771 202.102 126.638H199.155ZM209.284 137.213C208.162 137.213 207.196 136.986 206.387 136.531C205.582 136.072 204.962 135.423 204.526 134.585C204.09 133.742 203.873 132.746 203.873 131.595C203.873 130.473 204.09 129.488 204.526 128.641C204.962 127.793 205.575 127.133 206.365 126.659C207.161 126.186 208.094 125.949 209.164 125.949C209.883 125.949 210.553 126.065 211.174 126.297C211.799 126.524 212.343 126.867 212.807 127.327C213.276 127.786 213.641 128.364 213.901 129.06C214.161 129.751 214.292 130.561 214.292 131.489V132.32H205.08V130.445H211.444C211.444 130.009 211.349 129.623 211.159 129.287C210.97 128.951 210.707 128.688 210.371 128.499C210.04 128.304 209.654 128.207 209.213 128.207C208.754 128.207 208.347 128.314 207.992 128.527C207.641 128.735 207.367 129.017 207.168 129.372C206.969 129.723 206.867 130.113 206.863 130.544V132.327C206.863 132.866 206.962 133.333 207.161 133.726C207.364 134.119 207.651 134.422 208.02 134.635C208.39 134.848 208.828 134.955 209.334 134.955C209.67 134.955 209.978 134.907 210.257 134.812C210.537 134.718 210.776 134.576 210.975 134.386C211.174 134.197 211.325 133.965 211.429 133.69L214.228 133.875C214.086 134.547 213.794 135.134 213.354 135.636C212.918 136.134 212.355 136.522 211.664 136.801C210.977 137.076 210.184 137.213 209.284 137.213ZM219.377 137.206C218.681 137.206 218.06 137.085 217.516 136.844C216.971 136.598 216.541 136.235 216.223 135.757C215.911 135.274 215.755 134.673 215.755 133.953C215.755 133.347 215.866 132.838 216.088 132.426C216.311 132.014 216.614 131.683 216.998 131.432C217.381 131.181 217.817 130.991 218.304 130.864C218.797 130.736 219.313 130.646 219.853 130.594C220.487 130.527 220.998 130.466 221.387 130.409C221.775 130.348 222.057 130.258 222.232 130.139C222.407 130.021 222.495 129.846 222.495 129.614V129.571C222.495 129.121 222.353 128.773 222.069 128.527C221.789 128.281 221.391 128.158 220.875 128.158C220.331 128.158 219.898 128.278 219.576 128.52C219.254 128.757 219.041 129.055 218.936 129.415L216.138 129.188C216.28 128.525 216.56 127.952 216.976 127.469C217.393 126.981 217.93 126.607 218.588 126.347C219.251 126.081 220.018 125.949 220.89 125.949C221.496 125.949 222.076 126.02 222.63 126.162C223.188 126.304 223.683 126.524 224.114 126.822C224.55 127.121 224.893 127.504 225.144 127.973C225.395 128.437 225.52 128.993 225.52 129.642V137H222.651V135.487H222.566C222.391 135.828 222.156 136.129 221.863 136.389C221.569 136.645 221.216 136.846 220.804 136.993C220.392 137.135 219.917 137.206 219.377 137.206ZM220.243 135.118C220.688 135.118 221.081 135.03 221.422 134.855C221.763 134.675 222.031 134.434 222.225 134.131C222.419 133.828 222.516 133.484 222.516 133.101V131.943C222.421 132.005 222.291 132.062 222.125 132.114C221.964 132.161 221.782 132.206 221.578 132.249C221.375 132.286 221.171 132.322 220.968 132.355C220.764 132.384 220.579 132.41 220.414 132.433C220.059 132.485 219.748 132.568 219.483 132.682C219.218 132.795 219.012 132.949 218.865 133.143C218.719 133.333 218.645 133.57 218.645 133.854C218.645 134.266 218.794 134.58 219.093 134.798C219.396 135.011 219.779 135.118 220.243 135.118ZM227.868 137V126.091H230.751V128.016H230.879C231.106 127.376 231.485 126.872 232.015 126.503C232.546 126.134 233.18 125.949 233.919 125.949C234.667 125.949 235.304 126.136 235.829 126.51C236.355 126.879 236.705 127.381 236.88 128.016H236.994C237.217 127.391 237.619 126.891 238.201 126.517C238.788 126.138 239.482 125.949 240.282 125.949C241.3 125.949 242.127 126.273 242.761 126.922C243.4 127.566 243.72 128.48 243.72 129.663V137H240.701V130.26C240.701 129.654 240.54 129.199 240.218 128.896C239.896 128.593 239.494 128.442 239.011 128.442C238.462 128.442 238.033 128.617 237.725 128.967C237.418 129.313 237.264 129.77 237.264 130.338V137H234.331V130.196C234.331 129.661 234.177 129.235 233.869 128.918C233.566 128.6 233.166 128.442 232.669 128.442C232.333 128.442 232.029 128.527 231.76 128.697C231.494 128.863 231.284 129.098 231.127 129.401C230.971 129.699 230.893 130.049 230.893 130.452V137H227.868ZM249.135 122.455V137H246.11V122.455H249.135ZM256.531 137.213C255.408 137.213 254.442 136.986 253.633 136.531C252.828 136.072 252.208 135.423 251.772 134.585C251.336 133.742 251.119 132.746 251.119 131.595C251.119 130.473 251.336 129.488 251.772 128.641C252.208 127.793 252.821 127.133 253.612 126.659C254.407 126.186 255.34 125.949 256.41 125.949C257.129 125.949 257.799 126.065 258.42 126.297C259.045 126.524 259.589 126.867 260.053 127.327C260.522 127.786 260.887 128.364 261.147 129.06C261.407 129.751 261.538 130.561 261.538 131.489V132.32H252.326V130.445H258.69C258.69 130.009 258.595 129.623 258.406 129.287C258.216 128.951 257.953 128.688 257.617 128.499C257.286 128.304 256.9 128.207 256.46 128.207C256 128.207 255.593 128.314 255.238 128.527C254.888 128.735 254.613 129.017 254.414 129.372C254.215 129.723 254.113 130.113 254.109 130.544V132.327C254.109 132.866 254.208 133.333 254.407 133.726C254.611 134.119 254.897 134.422 255.266 134.635C255.636 134.848 256.074 134.955 256.58 134.955C256.916 134.955 257.224 134.907 257.504 134.812C257.783 134.718 258.022 134.576 258.221 134.386C258.42 134.197 258.571 133.965 258.675 133.69L261.474 133.875C261.332 134.547 261.04 135.134 260.6 135.636C260.165 136.134 259.601 136.522 258.91 136.801C258.223 137.076 257.43 137.213 256.531 137.213ZM272.589 129.202L269.819 129.372C269.772 129.135 269.67 128.922 269.513 128.733C269.357 128.539 269.151 128.385 268.896 128.271C268.645 128.153 268.344 128.094 267.994 128.094C267.525 128.094 267.129 128.193 266.808 128.392C266.486 128.586 266.325 128.847 266.325 129.173C266.325 129.434 266.429 129.654 266.637 129.834C266.845 130.014 267.203 130.158 267.71 130.267L269.684 130.665C270.745 130.883 271.535 131.233 272.056 131.716C272.577 132.199 272.837 132.833 272.837 133.619C272.837 134.334 272.627 134.962 272.205 135.501C271.789 136.041 271.216 136.463 270.487 136.766C269.762 137.064 268.926 137.213 267.979 137.213C266.535 137.213 265.385 136.912 264.528 136.311C263.675 135.705 263.176 134.881 263.029 133.839L266.005 133.683C266.095 134.124 266.313 134.46 266.658 134.692C267.004 134.919 267.447 135.033 267.987 135.033C268.517 135.033 268.943 134.931 269.265 134.727C269.592 134.519 269.757 134.251 269.762 133.925C269.757 133.65 269.641 133.425 269.414 133.25C269.187 133.07 268.836 132.933 268.363 132.838L266.474 132.462C265.408 132.249 264.615 131.879 264.094 131.354C263.578 130.828 263.32 130.158 263.32 129.344C263.32 128.643 263.51 128.039 263.888 127.533C264.272 127.026 264.809 126.635 265.501 126.361C266.197 126.086 267.011 125.949 267.944 125.949C269.322 125.949 270.406 126.24 271.197 126.822C271.992 127.405 272.456 128.198 272.589 129.202ZM283.819 129.202L281.049 129.372C281.002 129.135 280.9 128.922 280.744 128.733C280.588 128.539 280.382 128.385 280.126 128.271C279.875 128.153 279.574 128.094 279.224 128.094C278.755 128.094 278.36 128.193 278.038 128.392C277.716 128.586 277.555 128.847 277.555 129.173C277.555 129.434 277.659 129.654 277.868 129.834C278.076 130.014 278.433 130.158 278.94 130.267L280.914 130.665C281.975 130.883 282.766 131.233 283.287 131.716C283.807 132.199 284.068 132.833 284.068 133.619C284.068 134.334 283.857 134.962 283.436 135.501C283.019 136.041 282.446 136.463 281.717 136.766C280.993 137.064 280.157 137.213 279.21 137.213C277.766 137.213 276.615 136.912 275.758 136.311C274.906 135.705 274.406 134.881 274.26 133.839L277.235 133.683C277.325 134.124 277.543 134.46 277.889 134.692C278.234 134.919 278.677 135.033 279.217 135.033C279.747 135.033 280.173 134.931 280.495 134.727C280.822 134.519 280.988 134.251 280.993 133.925C280.988 133.65 280.872 133.425 280.645 133.25C280.417 133.07 280.067 132.933 279.593 132.838L277.704 132.462C276.639 132.249 275.846 131.879 275.325 131.354C274.809 130.828 274.551 130.158 274.551 129.344C274.551 128.643 274.74 128.039 275.119 127.533C275.502 127.026 276.04 126.635 276.731 126.361C277.427 126.086 278.242 125.949 279.174 125.949C280.552 125.949 281.636 126.24 282.427 126.822C283.223 127.405 283.687 128.198 283.819 129.202ZM288.999 122.455V137H285.973V122.455H288.999ZM293.29 141.091C292.907 141.091 292.547 141.06 292.211 140.999C291.879 140.942 291.605 140.868 291.387 140.778L292.069 138.52C292.424 138.629 292.743 138.688 293.027 138.697C293.316 138.707 293.565 138.641 293.773 138.499C293.986 138.357 294.159 138.115 294.292 137.774L294.469 137.312L290.556 126.091H293.738L295.996 134.102H296.11L298.39 126.091H301.593L297.353 138.179C297.149 138.766 296.872 139.277 296.522 139.713C296.176 140.153 295.738 140.492 295.208 140.729C294.677 140.97 294.038 141.091 293.29 141.091ZM315.717 126.638C315.661 126.065 315.417 125.62 314.986 125.303C314.555 124.985 313.97 124.827 313.232 124.827C312.73 124.827 312.306 124.898 311.96 125.04C311.615 125.177 311.349 125.369 311.165 125.615C310.985 125.861 310.895 126.141 310.895 126.453C310.885 126.714 310.94 126.941 311.058 127.135C311.181 127.329 311.349 127.497 311.562 127.639C311.776 127.777 312.022 127.897 312.301 128.001C312.58 128.101 312.879 128.186 313.196 128.257L314.503 128.57C315.137 128.712 315.72 128.901 316.25 129.138C316.78 129.375 317.24 129.666 317.628 130.011C318.016 130.357 318.317 130.764 318.53 131.233C318.748 131.702 318.859 132.239 318.864 132.845C318.859 133.735 318.632 134.507 318.182 135.161C317.737 135.809 317.093 136.313 316.25 136.673C315.412 137.028 314.401 137.206 313.217 137.206C312.043 137.206 311.02 137.026 310.149 136.666C309.283 136.306 308.606 135.774 308.118 135.068C307.635 134.358 307.382 133.48 307.358 132.433H310.334C310.367 132.921 310.507 133.328 310.753 133.655C311.004 133.977 311.338 134.221 311.754 134.386C312.176 134.547 312.652 134.628 313.182 134.628C313.703 134.628 314.155 134.552 314.538 134.401C314.927 134.249 315.227 134.038 315.44 133.768C315.653 133.499 315.76 133.188 315.76 132.838C315.76 132.511 315.663 132.237 315.469 132.014C315.279 131.792 315 131.602 314.631 131.446C314.266 131.29 313.819 131.148 313.288 131.02L311.705 130.622C310.478 130.324 309.51 129.857 308.8 129.223C308.089 128.589 307.737 127.734 307.741 126.659C307.737 125.778 307.971 125.009 308.445 124.351C308.923 123.693 309.579 123.179 310.412 122.81C311.245 122.44 312.192 122.256 313.253 122.256C314.332 122.256 315.275 122.44 316.08 122.81C316.889 123.179 317.519 123.693 317.969 124.351C318.419 125.009 318.651 125.771 318.665 126.638H315.717ZM326.678 126.091V128.364H320.108V126.091H326.678ZM321.6 123.477H324.625V133.648C324.625 133.927 324.668 134.145 324.753 134.301C324.838 134.453 324.957 134.559 325.108 134.621C325.265 134.682 325.444 134.713 325.648 134.713C325.79 134.713 325.932 134.701 326.074 134.678C326.216 134.649 326.325 134.628 326.401 134.614L326.877 136.865C326.725 136.912 326.512 136.967 326.238 137.028C325.963 137.095 325.629 137.135 325.236 137.149C324.507 137.178 323.868 137.08 323.319 136.858C322.774 136.635 322.35 136.29 322.047 135.821C321.744 135.352 321.595 134.76 321.6 134.045V123.477ZM328.649 137V126.091H331.582V127.994H331.696C331.895 127.317 332.228 126.806 332.697 126.46C333.166 126.11 333.706 125.935 334.316 125.935C334.468 125.935 334.631 125.944 334.806 125.963C334.982 125.982 335.136 126.008 335.268 126.041V128.726C335.126 128.683 334.93 128.645 334.679 128.612C334.428 128.579 334.198 128.562 333.99 128.562C333.545 128.562 333.147 128.66 332.797 128.854C332.451 129.043 332.176 129.308 331.973 129.649C331.774 129.99 331.674 130.383 331.674 130.828V137H328.649ZM341.296 137.213C340.174 137.213 339.208 136.986 338.398 136.531C337.594 136.072 336.973 135.423 336.538 134.585C336.102 133.742 335.884 132.746 335.884 131.595C335.884 130.473 336.102 129.488 336.538 128.641C336.973 127.793 337.586 127.133 338.377 126.659C339.173 126.186 340.105 125.949 341.175 125.949C341.895 125.949 342.565 126.065 343.185 126.297C343.81 126.524 344.355 126.867 344.819 127.327C345.288 127.786 345.652 128.364 345.913 129.06C346.173 129.751 346.303 130.561 346.303 131.489V132.32H337.092V130.445H343.455C343.455 130.009 343.361 129.623 343.171 129.287C342.982 128.951 342.719 128.688 342.383 128.499C342.051 128.304 341.665 128.207 341.225 128.207C340.766 128.207 340.359 128.314 340.004 128.527C339.653 128.735 339.379 129.017 339.18 129.372C338.981 129.723 338.879 130.113 338.874 130.544V132.327C338.874 132.866 338.974 133.333 339.173 133.726C339.376 134.119 339.663 134.422 340.032 134.635C340.401 134.848 340.839 134.955 341.346 134.955C341.682 134.955 341.99 134.907 342.269 134.812C342.549 134.718 342.788 134.576 342.987 134.386C343.185 134.197 343.337 133.965 343.441 133.69L346.239 133.875C346.097 134.547 345.806 135.134 345.366 135.636C344.93 136.134 344.367 136.522 343.675 136.801C342.989 137.076 342.196 137.213 341.296 137.213ZM351.388 137.206C350.692 137.206 350.072 137.085 349.528 136.844C348.983 136.598 348.552 136.235 348.235 135.757C347.923 135.274 347.766 134.673 347.766 133.953C347.766 133.347 347.878 132.838 348.1 132.426C348.323 132.014 348.626 131.683 349.009 131.432C349.393 131.181 349.828 130.991 350.316 130.864C350.808 130.736 351.325 130.646 351.864 130.594C352.499 130.527 353.01 130.466 353.398 130.409C353.787 130.348 354.068 130.258 354.244 130.139C354.419 130.021 354.506 129.846 354.506 129.614V129.571C354.506 129.121 354.364 128.773 354.08 128.527C353.801 128.281 353.403 128.158 352.887 128.158C352.343 128.158 351.909 128.278 351.587 128.52C351.265 128.757 351.052 129.055 350.948 129.415L348.15 129.188C348.292 128.525 348.571 127.952 348.988 127.469C349.405 126.981 349.942 126.607 350.6 126.347C351.263 126.081 352.03 125.949 352.901 125.949C353.507 125.949 354.087 126.02 354.641 126.162C355.2 126.304 355.695 126.524 356.126 126.822C356.561 127.121 356.905 127.504 357.156 127.973C357.406 128.437 357.532 128.993 357.532 129.642V137H354.663V135.487H354.577C354.402 135.828 354.168 136.129 353.874 136.389C353.581 136.645 353.228 136.846 352.816 136.993C352.404 137.135 351.928 137.206 351.388 137.206ZM352.255 135.118C352.7 135.118 353.093 135.03 353.434 134.855C353.775 134.675 354.042 134.434 354.237 134.131C354.431 133.828 354.528 133.484 354.528 133.101V131.943C354.433 132.005 354.303 132.062 354.137 132.114C353.976 132.161 353.794 132.206 353.59 132.249C353.387 132.286 353.183 132.322 352.979 132.355C352.776 132.384 352.591 132.41 352.425 132.433C352.07 132.485 351.76 132.568 351.495 132.682C351.23 132.795 351.024 132.949 350.877 133.143C350.73 133.333 350.657 133.57 350.657 133.854C350.657 134.266 350.806 134.58 351.104 134.798C351.407 135.011 351.791 135.118 352.255 135.118ZM359.879 137V126.091H362.763V128.016H362.891C363.118 127.376 363.497 126.872 364.027 126.503C364.557 126.134 365.192 125.949 365.93 125.949C366.679 125.949 367.315 126.136 367.841 126.51C368.366 126.879 368.717 127.381 368.892 128.016H369.006C369.228 127.391 369.631 126.891 370.213 126.517C370.8 126.138 371.494 125.949 372.294 125.949C373.312 125.949 374.138 126.273 374.773 126.922C375.412 127.566 375.732 128.48 375.732 129.663V137H372.713V130.26C372.713 129.654 372.552 129.199 372.23 128.896C371.908 128.593 371.506 128.442 371.023 128.442C370.473 128.442 370.045 128.617 369.737 128.967C369.429 129.313 369.276 129.77 369.276 130.338V137H366.342V130.196C366.342 129.661 366.188 129.235 365.881 128.918C365.578 128.6 365.178 128.442 364.68 128.442C364.344 128.442 364.041 128.527 363.771 128.697C363.506 128.863 363.295 129.098 363.139 129.401C362.983 129.699 362.905 130.049 362.905 130.452V137H359.879ZM381.147 122.455V137H378.121V122.455H381.147ZM383.571 137V126.091H386.596V137H383.571ZM385.091 124.685C384.641 124.685 384.255 124.536 383.933 124.237C383.616 123.934 383.457 123.572 383.457 123.151C383.457 122.734 383.616 122.376 383.933 122.078C384.255 121.775 384.641 121.624 385.091 121.624C385.54 121.624 385.924 121.775 386.241 122.078C386.563 122.376 386.724 122.734 386.724 123.151C386.724 123.572 386.563 123.934 386.241 124.237C385.924 124.536 385.54 124.685 385.091 124.685ZM392.045 130.693V137H389.02V126.091H391.903V128.016H392.031C392.273 127.381 392.678 126.879 393.246 126.51C393.814 126.136 394.503 125.949 395.312 125.949C396.07 125.949 396.731 126.115 397.294 126.446C397.857 126.777 398.295 127.251 398.608 127.866C398.92 128.477 399.077 129.206 399.077 130.054V137H396.051V130.594C396.056 129.926 395.885 129.405 395.54 129.031C395.194 128.652 394.718 128.463 394.112 128.463C393.705 128.463 393.345 128.551 393.033 128.726C392.725 128.901 392.483 129.157 392.308 129.493C392.138 129.824 392.05 130.224 392.045 130.693ZM401.461 137V126.091H404.487V137H401.461ZM402.981 124.685C402.531 124.685 402.145 124.536 401.824 124.237C401.506 123.934 401.348 123.572 401.348 123.151C401.348 122.734 401.506 122.376 401.824 122.078C402.145 121.775 402.531 121.624 402.981 121.624C403.431 121.624 403.815 121.775 404.132 122.078C404.454 122.376 404.615 122.734 404.615 123.151C404.615 123.572 404.454 123.934 404.132 124.237C403.815 124.536 403.431 124.685 402.981 124.685ZM409.936 130.693V137H406.911V126.091H409.794V128.016H409.922C410.163 127.381 410.568 126.879 411.136 126.51C411.705 126.136 412.393 125.949 413.203 125.949C413.961 125.949 414.621 126.115 415.185 126.446C415.748 126.777 416.186 127.251 416.499 127.866C416.811 128.477 416.967 129.206 416.967 130.054V137H413.942V130.594C413.946 129.926 413.776 129.405 413.43 129.031C413.085 128.652 412.609 128.463 412.003 128.463C411.596 128.463 411.236 128.551 410.923 128.726C410.616 128.901 410.374 129.157 410.199 129.493C410.028 129.824 409.941 130.224 409.936 130.693ZM424.267 141.318C423.287 141.318 422.446 141.183 421.745 140.913C421.049 140.648 420.495 140.286 420.083 139.827C419.672 139.367 419.404 138.851 419.281 138.278L422.079 137.902C422.164 138.12 422.299 138.323 422.484 138.513C422.669 138.702 422.913 138.854 423.216 138.967C423.523 139.086 423.897 139.145 424.338 139.145C424.996 139.145 425.538 138.984 425.964 138.662C426.395 138.345 426.61 137.812 426.61 137.064V135.068H426.483C426.35 135.371 426.151 135.658 425.886 135.928C425.621 136.197 425.28 136.418 424.863 136.588C424.447 136.759 423.949 136.844 423.372 136.844C422.553 136.844 421.807 136.654 421.135 136.276C420.467 135.892 419.934 135.307 419.537 134.521C419.144 133.731 418.947 132.732 418.947 131.524C418.947 130.288 419.148 129.256 419.551 128.428C419.953 127.599 420.488 126.979 421.156 126.567C421.828 126.155 422.565 125.949 423.365 125.949C423.975 125.949 424.487 126.053 424.899 126.261C425.311 126.465 425.642 126.721 425.893 127.028C426.149 127.331 426.345 127.63 426.483 127.923H426.596V126.091H429.6V137.107C429.6 138.035 429.373 138.811 428.919 139.436C428.464 140.061 427.834 140.53 427.029 140.842C426.229 141.16 425.308 141.318 424.267 141.318ZM424.331 134.571C424.818 134.571 425.23 134.45 425.566 134.209C425.907 133.963 426.168 133.612 426.348 133.158C426.532 132.698 426.625 132.149 426.625 131.51C426.625 130.871 426.535 130.317 426.355 129.848C426.175 129.375 425.914 129.008 425.574 128.747C425.233 128.487 424.818 128.357 424.331 128.357C423.833 128.357 423.414 128.491 423.074 128.761C422.733 129.027 422.475 129.396 422.299 129.869C422.124 130.343 422.037 130.89 422.037 131.51C422.037 132.14 422.124 132.684 422.299 133.143C422.479 133.598 422.737 133.951 423.074 134.202C423.414 134.448 423.833 134.571 424.331 134.571ZM435.842 122.455H439.286L442.603 128.719H442.745L446.062 122.455H449.506L444.201 131.858V137H441.147V131.858L435.842 122.455ZM453.773 137.213C452.67 137.213 451.716 136.979 450.911 136.51C450.111 136.036 449.493 135.378 449.057 134.536C448.622 133.688 448.404 132.705 448.404 131.588C448.404 130.461 448.622 129.476 449.057 128.634C449.493 127.786 450.111 127.128 450.911 126.659C451.716 126.186 452.67 125.949 453.773 125.949C454.876 125.949 455.828 126.186 456.628 126.659C457.433 127.128 458.053 127.786 458.489 128.634C458.925 129.476 459.142 130.461 459.142 131.588C459.142 132.705 458.925 133.688 458.489 134.536C458.053 135.378 457.433 136.036 456.628 136.51C455.828 136.979 454.876 137.213 453.773 137.213ZM453.787 134.869C454.289 134.869 454.708 134.727 455.044 134.443C455.381 134.154 455.634 133.761 455.804 133.264C455.98 132.767 456.067 132.201 456.067 131.567C456.067 130.932 455.98 130.366 455.804 129.869C455.634 129.372 455.381 128.979 455.044 128.69C454.708 128.402 454.289 128.257 453.787 128.257C453.281 128.257 452.855 128.402 452.509 128.69C452.168 128.979 451.91 129.372 451.735 129.869C451.564 130.366 451.479 130.932 451.479 131.567C451.479 132.201 451.564 132.767 451.735 133.264C451.91 133.761 452.168 134.154 452.509 134.443C452.855 134.727 453.281 134.869 453.787 134.869ZM468.105 132.355V126.091H471.131V137H468.226V135.018H468.113C467.866 135.658 467.457 136.171 466.884 136.56C466.316 136.948 465.622 137.142 464.803 137.142C464.074 137.142 463.432 136.976 462.878 136.645C462.324 136.313 461.891 135.842 461.578 135.232C461.271 134.621 461.114 133.889 461.11 133.037V126.091H464.135V132.497C464.14 133.141 464.313 133.65 464.654 134.024C464.995 134.398 465.452 134.585 466.025 134.585C466.389 134.585 466.73 134.502 467.047 134.337C467.364 134.166 467.62 133.915 467.814 133.584C468.013 133.252 468.11 132.843 468.105 132.355ZM473.551 137V126.091H476.484V127.994H476.598C476.797 127.317 477.131 126.806 477.599 126.46C478.068 126.11 478.608 125.935 479.219 125.935C479.37 125.935 479.534 125.944 479.709 125.963C479.884 125.982 480.038 126.008 480.17 126.041V128.726C480.028 128.683 479.832 128.645 479.581 128.612C479.33 128.579 479.1 128.562 478.892 128.562C478.447 128.562 478.049 128.66 477.699 128.854C477.353 129.043 477.079 129.308 476.875 129.649C476.676 129.99 476.577 130.383 476.577 130.828V137H473.551ZM494.311 126.638C494.254 126.065 494.01 125.62 493.58 125.303C493.149 124.985 492.564 124.827 491.825 124.827C491.323 124.827 490.9 124.898 490.554 125.04C490.208 125.177 489.943 125.369 489.759 125.615C489.579 125.861 489.489 126.141 489.489 126.453C489.479 126.714 489.534 126.941 489.652 127.135C489.775 127.329 489.943 127.497 490.156 127.639C490.369 127.777 490.616 127.897 490.895 128.001C491.174 128.101 491.473 128.186 491.79 128.257L493.097 128.57C493.731 128.712 494.313 128.901 494.844 129.138C495.374 129.375 495.833 129.666 496.222 130.011C496.61 130.357 496.911 130.764 497.124 131.233C497.341 131.702 497.453 132.239 497.457 132.845C497.453 133.735 497.225 134.507 496.776 135.161C496.33 135.809 495.687 136.313 494.844 136.673C494.006 137.028 492.995 137.206 491.811 137.206C490.637 137.206 489.614 137.026 488.743 136.666C487.876 136.306 487.199 135.774 486.712 135.068C486.229 134.358 485.975 133.48 485.952 132.433H488.928C488.961 132.921 489.1 133.328 489.347 133.655C489.598 133.977 489.931 134.221 490.348 134.386C490.769 134.547 491.245 134.628 491.776 134.628C492.296 134.628 492.749 134.552 493.132 134.401C493.52 134.249 493.821 134.038 494.034 133.768C494.247 133.499 494.354 133.188 494.354 132.838C494.354 132.511 494.257 132.237 494.062 132.014C493.873 131.792 493.594 131.602 493.224 131.446C492.86 131.29 492.412 131.148 491.882 131.02L490.298 130.622C489.072 130.324 488.104 129.857 487.393 129.223C486.683 128.589 486.33 127.734 486.335 126.659C486.33 125.778 486.565 125.009 487.038 124.351C487.517 123.693 488.172 123.179 489.006 122.81C489.839 122.44 490.786 122.256 491.847 122.256C492.926 122.256 493.868 122.44 494.673 122.81C495.483 123.179 496.113 123.693 496.562 124.351C497.012 125.009 497.244 125.771 497.259 126.638H494.311ZM504.398 137.213C503.281 137.213 502.319 136.976 501.515 136.503C500.714 136.025 500.099 135.362 499.668 134.514C499.242 133.667 499.029 132.691 499.029 131.588C499.029 130.471 499.244 129.491 499.675 128.648C500.111 127.8 500.729 127.14 501.529 126.666C502.329 126.188 503.281 125.949 504.384 125.949C505.336 125.949 506.169 126.122 506.884 126.467C507.599 126.813 508.165 127.298 508.581 127.923C508.998 128.548 509.228 129.282 509.27 130.125H506.415C506.335 129.58 506.122 129.143 505.776 128.811C505.435 128.475 504.988 128.307 504.434 128.307C503.965 128.307 503.555 128.435 503.205 128.69C502.859 128.941 502.589 129.308 502.395 129.791C502.201 130.274 502.104 130.859 502.104 131.545C502.104 132.241 502.199 132.833 502.388 133.321C502.582 133.809 502.855 134.18 503.205 134.436C503.555 134.692 503.965 134.82 504.434 134.82C504.779 134.82 505.089 134.749 505.364 134.607C505.643 134.464 505.873 134.259 506.053 133.989C506.238 133.714 506.358 133.385 506.415 133.001H509.27C509.223 133.835 508.996 134.569 508.588 135.203C508.186 135.833 507.63 136.325 506.919 136.68C506.209 137.036 505.369 137.213 504.398 137.213ZM514.233 130.693V137H511.207V122.455H514.148V128.016H514.276C514.522 127.372 514.92 126.867 515.469 126.503C516.018 126.134 516.707 125.949 517.536 125.949C518.293 125.949 518.954 126.115 519.517 126.446C520.085 126.773 520.526 127.244 520.838 127.859C521.155 128.47 521.312 129.202 521.307 130.054V137H518.281V130.594C518.286 129.921 518.116 129.398 517.77 129.024C517.429 128.65 516.951 128.463 516.335 128.463C515.923 128.463 515.559 128.551 515.241 128.726C514.929 128.901 514.683 129.157 514.503 129.493C514.328 129.824 514.238 130.224 514.233 130.693ZM528.659 137.213C527.537 137.213 526.571 136.986 525.762 136.531C524.957 136.072 524.337 135.423 523.901 134.585C523.465 133.742 523.248 132.746 523.248 131.595C523.248 130.473 523.465 129.488 523.901 128.641C524.337 127.793 524.95 127.133 525.74 126.659C526.536 126.186 527.469 125.949 528.539 125.949C529.258 125.949 529.928 126.065 530.549 126.297C531.174 126.524 531.718 126.867 532.182 127.327C532.651 127.786 533.016 128.364 533.276 129.06C533.536 129.751 533.667 130.561 533.667 131.489V132.32H524.455V130.445H530.819C530.819 130.009 530.724 129.623 530.534 129.287C530.345 128.951 530.082 128.688 529.746 128.499C529.415 128.304 529.029 128.207 528.588 128.207C528.129 128.207 527.722 128.314 527.367 128.527C527.016 128.735 526.742 129.017 526.543 129.372C526.344 129.723 526.242 130.113 526.238 130.544V132.327C526.238 132.866 526.337 133.333 526.536 133.726C526.739 134.119 527.026 134.422 527.395 134.635C527.765 134.848 528.203 134.955 528.709 134.955C529.045 134.955 529.353 134.907 529.632 134.812C529.912 134.718 530.151 134.576 530.35 134.386C530.549 134.197 530.7 133.965 530.804 133.69L533.603 133.875C533.461 134.547 533.169 135.134 532.729 135.636C532.293 136.134 531.73 136.522 531.039 136.801C530.352 137.076 529.559 137.213 528.659 137.213ZM539.661 137.178C538.832 137.178 538.082 136.964 537.409 136.538C536.742 136.107 536.212 135.475 535.819 134.642C535.43 133.804 535.236 132.777 535.236 131.56C535.236 130.31 535.437 129.27 535.84 128.442C536.242 127.608 536.777 126.986 537.445 126.574C538.117 126.157 538.854 125.949 539.654 125.949C540.265 125.949 540.774 126.053 541.181 126.261C541.593 126.465 541.924 126.721 542.175 127.028C542.431 127.331 542.625 127.63 542.757 127.923H542.85V122.455H545.868V137H542.885V135.253H542.757C542.615 135.556 542.414 135.857 542.154 136.155C541.898 136.448 541.564 136.692 541.152 136.886C540.745 137.08 540.248 137.178 539.661 137.178ZM540.62 134.77C541.107 134.77 541.519 134.637 541.855 134.372C542.196 134.102 542.457 133.726 542.637 133.243C542.821 132.76 542.914 132.194 542.914 131.545C542.914 130.897 542.824 130.333 542.644 129.855C542.464 129.377 542.203 129.008 541.863 128.747C541.522 128.487 541.107 128.357 540.62 128.357C540.123 128.357 539.703 128.491 539.363 128.761C539.022 129.031 538.764 129.405 538.588 129.884C538.413 130.362 538.326 130.916 538.326 131.545C538.326 132.18 538.413 132.741 538.588 133.229C538.768 133.712 539.026 134.09 539.363 134.365C539.703 134.635 540.123 134.77 540.62 134.77ZM555.352 132.355V126.091H558.377V137H555.472V135.018H555.359C555.112 135.658 554.703 136.171 554.13 136.56C553.562 136.948 552.868 137.142 552.049 137.142C551.32 137.142 550.678 136.976 550.124 136.645C549.57 136.313 549.137 135.842 548.825 135.232C548.517 134.621 548.361 133.889 548.356 133.037V126.091H551.381V132.497C551.386 133.141 551.559 133.65 551.9 134.024C552.241 134.398 552.698 134.585 553.271 134.585C553.635 134.585 553.976 134.502 554.293 134.337C554.611 134.166 554.866 133.915 555.06 133.584C555.259 133.252 555.356 132.843 555.352 132.355ZM563.823 122.455V137H560.797V122.455H563.823ZM571.218 137.213C570.096 137.213 569.13 136.986 568.32 136.531C567.515 136.072 566.895 135.423 566.46 134.585C566.024 133.742 565.806 132.746 565.806 131.595C565.806 130.473 566.024 129.488 566.46 128.641C566.895 127.793 567.508 127.133 568.299 126.659C569.094 126.186 570.027 125.949 571.097 125.949C571.817 125.949 572.487 126.065 573.107 126.297C573.732 126.524 574.277 126.867 574.741 127.327C575.21 127.786 575.574 128.364 575.835 129.06C576.095 129.751 576.225 130.561 576.225 131.489V132.32H567.013V130.445H573.377C573.377 130.009 573.282 129.623 573.093 129.287C572.904 128.951 572.641 128.688 572.305 128.499C571.973 128.304 571.587 128.207 571.147 128.207C570.688 128.207 570.281 128.314 569.925 128.527C569.575 128.735 569.3 129.017 569.102 129.372C568.903 129.723 568.801 130.113 568.796 130.544V132.327C568.796 132.866 568.896 133.333 569.094 133.726C569.298 134.119 569.585 134.422 569.954 134.635C570.323 134.848 570.761 134.955 571.268 134.955C571.604 134.955 571.912 134.907 572.191 134.812C572.47 134.718 572.71 134.576 572.908 134.386C573.107 134.197 573.259 133.965 573.363 133.69L576.161 133.875C576.019 134.547 575.728 135.134 575.288 135.636C574.852 136.134 574.289 136.522 573.597 136.801C572.911 137.076 572.118 137.213 571.218 137.213ZM579.968 137.185C579.499 137.185 579.097 137.019 578.761 136.688C578.429 136.351 578.263 135.949 578.263 135.48C578.263 135.016 578.429 134.618 578.761 134.287C579.097 133.955 579.499 133.79 579.968 133.79C580.423 133.79 580.82 133.955 581.161 134.287C581.502 134.618 581.673 135.016 581.673 135.48C581.673 135.793 581.592 136.079 581.431 136.339C581.275 136.595 581.069 136.801 580.813 136.957C580.558 137.109 580.276 137.185 579.968 137.185Z" fill="#505050"/>
<defs>
<clipPath id="clip0_1_17">
<rect width="106" height="109" fill="white" transform="translate(68 33)"/>
</clipPath>
<clipPath id="clip1_1_17">
<rect width="106" height="109" fill="white" transform="translate(68 33)"/>
</clipPath>
</defs>
</svg>
